name analog
datacolumns 19
datarows 57
range 0.1705 0.1985
endheader
time	ground_force_vx	ground_force_vy	ground_force_vz	ground_force_px	ground_force_py	ground_force_pz	l_ground_force_vx	l_ground_force_vy	l_ground_force_vz	l_ground_force_px	l_ground_force_py	l_ground_force_pz	ground_torque_x	ground_torque_y	ground_torque_z	l_ground_torque_x	l_ground_torque_y	l_ground_torque_z
0.1705	-0.0	-0.0	-0.0	-6.959237575531006	75.40514373779297	-561.5464477539062	5.49844217300415	-77.98966979980469	-548.1744995117188	-0.0	-0.0	-0.0	-0.0	-0.0	-0.0	78575.5625	1782.3048095703125	-10132.42578125
0.171	-0.0	-0.0	-0.0	-6.956986904144287	75.135498046875	-558.7279052734375	5.325798988342285	-77.37136840820312	-548.8787231445312	-0.0	-0.0	-0.0	-0.0	-0.0	-0.0	78212.953125	1889.24853515625	-10133.41015625
0.1715	-0.0	-0.0	-0.0	-6.692871570587158	74.2462158203125	-562.25537109375	5.414389133453369	-77.36376190185547	-548.1680908203125	-0.0	-0.0	-0.0	-0.0	-0.0	-0.0	78274.625	2128.60400390625	-10248.3740234375
0.17200000000000001	-0.0	-0.0	-0.0	-6.780447006225586	74.86864471435547	-559.4387817382812	5.411357879638672	-77.10482788085938	-548.1737670898438	-0.0	-0.0	-0.0	-0.0	-0.0	-0.0	78131.6015625	2643.330322265625	-10250.794921875
0.17250000000000001	-0.0	-0.0	-0.0	-7.582893371582031	74.60179901123047	-561.55615234375	5.319863796234131	-76.83848571777344	-548.51171875	-0.0	-0.0	-0.0	-0.0	-0.0	-0.0	78314.0859375	2414.081298828125	-10515.873046875
0.17300000000000001	-0.0	-0.0	-0.0	-7.493804931640625	74.33464050292969	-562.9674072265625	4.70703649520874	-76.30860137939453	-549.5752563476562	-0.0	-0.0	-0.0	-0.0	-0.0	-0.0	78416.5703125	2440.296875	-10519.34765625
0.17350000000000002	-0.0	-0.0	-0.0	-7.939492225646973	73.88938903808594	-564.0279541015625	4.61549711227417	-76.21656799316406	-548.5272216796875	-0.0	-0.0	-0.0	-0.0	-0.0	-0.0	78411.7421875	2953.289794921875	-10637.4990234375
0.17400000000000002	-0.0	-0.0	-0.0	-7.493743419647217	73.80001831054688	-563.6752319335938	4.168199062347412	-76.22041320800781	-551.296142578125	-0.0	-0.0	-0.0	-0.0	-0.0	-0.0	78023.21875	2932.466796875	-10696.6611328125
0.17450000000000002	-0.0	-0.0	-0.0	-7.315261840820312	74.24553680419922	-565.0875244140625	4.253579616546631	-75.77888488769531	-551.2836303710938	-0.0	-0.0	-0.0	-0.0	-0.0	-0.0	78719.5859375	3222.694091796875	-10872.8818359375
0.17500000000000002	-0.0	-0.0	-0.0	-7.850114345550537	73.80093383789062	-565.4432373046875	3.9898180961608887	-75.86617279052734	-550.2416381835938	-0.0	-0.0	-0.0	-0.0	-0.0	-0.0	78456.390625	3503.102783203125	-11051.0927734375
0.17550000000000002	-0.0	-0.0	-0.0	-7.849932670593262	73.79957580566406	-566.1497802734375	4.164290428161621	-75.3404312133789	-549.921875	-0.0	-0.0	-0.0	-0.0	-0.0	-0.0	78429.546875	3515.274169921875	-11080.1787109375
0.176	-0.0	-0.0	-0.0	-7.93892240524292	74.33395385742188	-567.555908203125	3.5474812984466557	-75.16459655761719	-549.5460205078125	-0.0	-0.0	-0.0	-0.0	-0.0	-0.0	78287.5859375	3653.431640625	-11256.6982421875
0.1765	-0.0	-0.0	-0.0	-7.581605434417725	74.24530029296875	-568.6171875	3.1890907287597656	-74.63540649414062	-550.583740234375	-0.0	-0.0	-0.0	-0.0	-0.0	-0.0	78389.796875	4094.4365234375	-11229.6962890625
0.177	-0.0	-0.0	-0.0	-7.048395156860352	74.33628845214844	-568.6197509765625	2.4002277851104736	-74.63683319091797	-548.513916015625	-0.0	-0.0	-0.0	-0.0	-0.0	-0.0	78191.09375	3824.95458984375	-11437.0654296875
0.1775	-0.0	-0.0	-0.0	-6.779542922973633	74.15695190429688	-569.32421875	1.9531699419021609	-73.92829895019531	-547.1266479492188	-0.0	-0.0	-0.0	-0.0	-0.0	-0.0	78019.0078125	4202.68359375	-11645.6923828125
0.178	-0.0	-0.0	-0.0	-6.247774124145508	74.60264587402344	-569.3160400390625	1.9494891166687007	-73.83621978759766	-547.8103637695312	-0.0	-0.0	-0.0	-0.0	-0.0	-0.0	78012.875	4610.32861328125	-11616.9658203125
0.1785	-0.0	-0.0	-0.0	-5.70947265625	74.24678039550781	-568.6381225585938	1.3274470567703247	-72.95307922363281	-547.12060546875	-0.0	-0.0	-0.0	-0.0	-0.0	-0.0	78097.296875	4634.3037109375	-11853.5380859375
0.179	-0.0	-0.0	-0.0	-5.9752116203308105	74.68687438964844	-570.380615234375	0.8865154981613159	-72.33546447753906	-546.424560546875	-0.0	-0.0	-0.0	-0.0	-0.0	-0.0	77733.53125	4842.755859375	-11853.8935546875
0.1795	-0.0	-0.0	-0.0	-5.354705333709717	74.33476257324219	-570.7196044921875	0.8865759968757629	-72.1588134765625	-545.376953125	-0.0	-0.0	-0.0	-0.0	-0.0	-0.0	77395.6875	5189.6640625	-12031.990234375
0.18	-0.0	-0.0	-0.0	-4.909638404846191	74.42312622070312	-569.6640625	0.2675085663795471	-71.80552673339844	-545.376708984375	-0.0	-0.0	-0.0	-0.0	-0.0	-0.0	77503.7109375	5620.9052734375	-12061.6484375
0.1805	-0.0	-0.0	-0.0	-5.526156425476074	74.33557891845703	-568.243896484375	0.2673573493957519	-70.48355865478516	-543.9750366210938	-0.0	-0.0	-0.0	-0.0	-0.0	-0.0	77035.5234375	5563.505859375	-12150.4423828125
0.181	-0.0	-0.0	-0.0	-4.641546726226807	74.42735290527344	-565.8011474609375	0.0879950672388076	-70.6580581665039	-543.2841186523438	-0.0	-0.0	-0.0	-0.0	-0.0	-0.0	77175.8828125	5901.91015625	-12180.380859375
0.1815	-0.0	-0.0	-0.0	-4.3797760009765625	74.7813491821289	-564.7459106445312	-0.0008542123832739	-70.393798828125	-543.6290283203125	-0.0	-0.0	-0.0	-0.0	-0.0	-0.0	76964.0	6130.14697265625	-12357.740234375
0.182	-0.0	-0.0	-0.0	-4.376317977905273	74.60314178466797	-564.7149658203125	0.2654585838317871	-70.1269760131836	-543.2781372070312	-0.0	-0.0	-0.0	-0.0	-0.0	-0.0	76685.421875	6319.51611328125	-12357.86328125
0.1825	-0.0	-0.0	-0.0	-5.079628467559815	74.86953735351562	-563.6369018554688	-0.3546916842460632	-69.95046997070312	-541.5341796875	-0.0	-0.0	-0.0	-0.0	-0.0	-0.0	76541.890625	6633.126953125	-12328.900390625
0.183	-0.0	-0.0	-0.0	-4.371315002441406	74.94967651367188	-559.4637451171875	-0.4436548948287964	-69.1559829711914	-540.485107421875	-0.0	-0.0	-0.0	-0.0	-0.0	-0.0	76166.9765625	6686.2783203125	-12595.3662109375
0.1835	-0.0	-0.0	-0.0	-4.806698799133301	74.77922821044922	-559.0838623046875	-0.3550472855567932	-68.97935485839844	-539.0894165039062	-0.0	-0.0	-0.0	-0.0	-0.0	-0.0	75892.296875	7156.08203125	-12447.005859375
0.184	-0.0	-0.0	-0.0	-4.465561389923096	75.22605895996094	-557.696044921875	-1.0644971132278442	-68.97936248779297	-536.9947509765625	-0.0	-0.0	-0.0	-0.0	-0.0	-0.0	75428.59375	7174.58837890625	-12566.1787109375
0.1845	-0.0	-0.0	-0.0	-5.344773292541504	74.87345886230469	-554.1600341796875	-0.9759838581085204	-69.06682586669922	-533.853759765625	-0.0	-0.0	-0.0	-0.0	-0.0	-0.0	74969.5390625	7469.50341796875	-12536.544921875
0.185	-0.0	-0.0	-0.0	-5.525570392608643	74.7872543334961	-553.44384765625	-1.5969369411468506	-68.36099243164062	-532.1053466796875	-0.0	-0.0	-0.0	-0.0	-0.0	-0.0	74664.71875	7899.6328125	-12774.0361328125
0.1855	-0.0	-0.0	-0.0	-5.437510013580322	75.044921875	-550.9778442382812	-2.2162580490112305	-68.44995880126953	-528.96728515625	-0.0	-0.0	-0.0	-0.0	-0.0	-0.0	74271.890625	8155.6357421875	-12804.0205078125
0.186	-0.0	-0.0	-0.0	-5.615779399871826	75.23053741455078	-550.9547729492188	-2.5728790760040283	-67.92149353027344	-528.9647216796875	-0.0	-0.0	-0.0	-0.0	-0.0	-0.0	73714.25	8542.357421875	-12952.0693359375
0.1865	-0.0	-0.0	-0.0	-6.340217113494873	75.48249053955078	-550.5889282226562	-3.6354455947875977	-68.44829559326172	-526.8670654296875	-0.0	-0.0	-0.0	-0.0	-0.0	-0.0	73280.3359375	8600.23828125	-12953.0390625
0.187	-0.0	-0.0	-0.0	-6.786471366882324	75.48860168457031	-549.8947143554688	-3.637531757354736	-68.186279296875	-521.9801635742188	-0.0	-0.0	-0.0	-0.0	-0.0	-0.0	72865.796875	9005.5439453125	-13160.685546875
0.1875	-0.0	-0.0	-0.0	-7.406150817871094	75.04612731933594	-546.0427856445312	-4.612511157989502	-68.18836975097656	-520.9395141601562	-0.0	-0.0	-0.0	-0.0	-0.0	-0.0	72337.078125	9300.2822265625	-13161.470703125
0.188	-0.0	-0.0	-0.0	-7.411479949951172	76.01947784423828	-547.7543334960938	-5.764111042022705	-68.62594604492188	-518.5003662109375	-0.0	-0.0	-0.0	-0.0	-0.0	-0.0	72095.140625	9527.3876953125	-13341.03515625
0.1885	-0.0	-0.0	-0.0	-8.109142303466797	75.68251037597656	-544.6392211914062	-5.857203960418701	-68.098876953125	-516.75341796875	-0.0	-0.0	-0.0	-0.0	-0.0	-0.0	71801.109375	9811.87109375	-13311.71875
0.189	-0.0	-0.0	-0.0	-8.023354530334473	76.02264404296875	-543.9266357421875	-6.83009672164917	-68.36162567138672	-515.3427734375	-0.0	-0.0	-0.0	-0.0	-0.0	-0.0	71484.1171875	9875.1875	-13578.2646484375
0.1895	-0.0	-0.0	-0.0	-8.829903602600098	76.38475036621094	-542.138916015625	-7.625593662261963	-68.18504333496094	-515.00146484375	-0.0	-0.0	-0.0	-0.0	-0.0	-0.0	71337.8671875	10237.8564453125	-13579.2099609375
0.19	-0.0	-0.0	-0.0	-8.835816383361816	76.21443939208984	-542.8453979492188	-7.982456684112549	-68.18358612060547	-513.2499389648438	-0.0	-0.0	-0.0	-0.0	-0.0	-0.0	70549.6640625	10450.3349609375	-13639.5498046875
0.1905	-0.0	-0.0	-0.0	-9.44394588470459	76.65214538574219	-541.7454223632812	-8.425864219665527	-68.5384521484375	-511.1612243652344	-0.0	-0.0	-0.0	-0.0	-0.0	-0.0	70763.5078125	10599.2099609375	-13641.41796875
0.191	-0.0	-0.0	-0.0	-9.719720840454102	76.91742706298828	-541.0465698242188	-8.429286003112793	-68.88916015625	-511.1475524902344	-0.0	-0.0	-0.0	-0.0	-0.0	-0.0	70123.2890625	10774.044921875	-13697.732421875
0.1915	-0.0	-0.0	-0.0	-10.07209587097168	76.74778747558594	-537.23828125	-8.87201976776123	-68.71615600585938	-507.0051879882813	-0.0	-0.0	-0.0	-0.0	-0.0	-0.0	70046.109375	10748.47265625	-13727.60546875
0.192	-0.0	-0.0	-0.0	-10.243483543395996	76.7547378540039	-537.5132446289062	-8.963846206665039	-68.7122573852539	-507.6624450683594	-0.0	-0.0	-0.0	-0.0	-0.0	-0.0	69781.59375	11150.71875	-13787.9423828125
0.1925	-0.0	-0.0	-0.0	-10.003067016601562	76.99948120117188	-536.0999145507812	-9.66734504699707	-69.15482330322266	-505.5799255371094	-0.0	-0.0	-0.0	-0.0	-0.0	-0.0	69344.0625	11226.90234375	-13759.9609375
0.193	-0.0	-0.0	-0.0	-10.177074432373049	77.10250854492188	-536.8054809570312	-9.8480224609375	-69.4242172241211	-504.532958984375	-0.0	-0.0	-0.0	-0.0	-0.0	-0.0	68963.875	11221.734375	-13789.5048828125
0.1935	-0.0	-0.0	-0.0	-10.08808422088623	77.0086669921875	-535.7450561523438	-10.2029390335083	-69.86126708984375	-501.73089599609375	-0.0	-0.0	-0.0	-0.0	-0.0	-0.0	69109.3828125	11485.4208984375	-13789.5166015625
0.194	-0.0	-0.0	-0.0	-10.455008506774902	77.35527038574219	-534.3317260742188	-10.38166046142578	-69.5999755859375	-502.055419921875	-0.0	-0.0	-0.0	-0.0	-0.0	-0.0	68246.9296875	11768.80859375	-13967.1611328125
0.1945	-0.0	-0.0	-0.0	-10.261764526367188	77.6300277709961	-534.3207397460938	-11.005426406860352	-70.30010986328125	-499.6412048339844	-0.0	-0.0	-0.0	-0.0	-0.0	-0.0	68214.25	11734.5224609375	-14084.6689453125
0.195	-0.0	-0.0	-0.0	-10.164783477783203	77.62737274169922	-532.5953369140625	-11.44094467163086	-70.6559829711914	-497.2243041992188	-0.0	-0.0	-0.0	-0.0	-0.0	-0.0	67966.1328125	11941.615234375	-14027.05078125
0.1955	-0.0	-0.0	-0.0	-10.345751762390137	77.71105194091797	-530.5396728515625	-11.18472385406494	-70.7470932006836	-497.1636962890625	-0.0	-0.0	-0.0	-0.0	-0.0	-0.0	67442.9453125	11780.271484375	-13909.6533203125
0.196	-0.0	-0.0	-0.0	-10.002541542053224	77.70527648925781	-528.7320556640625	-12.148859024047852	-70.5705337524414	-493.7300109863281	-0.0	-0.0	-0.0	-0.0	-0.0	-0.0	67496.703125	12128.2578125	-13998.3291015625
0.1965	-0.0	-0.0	-0.0	-10.345627784729004	77.55182647705078	-526.3155517578125	-12.419509887695312	-70.57367706298828	-493.0265808105469	-0.0	-0.0	-0.0	-0.0	-0.0	-0.0	66911.453125	12124.1103515625	-13940.2353515625
0.197	-0.0	-0.0	-0.0	-10.26206111907959	77.2817611694336	-525.53173828125	-12.506604194641112	-70.66378784179688	-492.9702453613281	-0.0	-0.0	-0.0	-0.0	-0.0	-0.0	66578.203125	12226.240234375	-14027.73046875
0.1975	-0.0	-0.0	-0.0	-10.348419189453123	77.1036376953125	-523.4822387695312	-12.32741928100586	-71.1023178100586	-489.846435546875	-0.0	-0.0	-0.0	-0.0	-0.0	-0.0	66348.734375	12129.8525390625	-14028.25390625
0.198	-0.0	-0.0	-0.0	-10.09566879272461	76.74127197265625	-520.9404296875	-12.421250343322754	-70.83746337890625	-490.5169677734375	-0.0	-0.0	-0.0	-0.0	-0.0	-0.0	66520.0390625	12177.4658203125	-13910.7607421875
0.1985	-0.0	-0.0	-0.0	-10.09908676147461	77.26082611083984	-518.2236328125	-12.234835624694824	-71.18728637695312	-487.1022033691406	-0.0	-0.0	-0.0	-0.0	-0.0	-0.0	66342.953125	12471.822265625	-13821.7744140625
